HIERARCHY
ROOT pelvis
{
	OFFSET 0.000000 0.000000 0.000000
	CHANNELS 6 Xposition Yposition Zposition Xrotation Yrotation Zrotation
	JOINT torso
	{
		OFFSET 0.000000 0.000000 0.236151
		CHANNELS 3 Xrotation Yrotation Zrotation
		JOINT head
		{
			OFFSET 0.000000 0.000000 0.223894
			CHANNELS 3 Xrotation Yrotation Zrotation
			End Site
			{
				OFFSET 0.000000 0.000000 0.095000
			}
		}
		JOINT right_upper_arm
		{
			OFFSET -0.024050 -0.183110 0.243500
			CHANNELS 3 Xrotation Yrotation Zrotation
			JOINT right_lower_arm
			{
				OFFSET 0.000000 -0.274788 0.000000
				CHANNELS 3 Xrotation Yrotation Zrotation
				JOINT right_hand
				{
					OFFSET 0.000000 -0.258947 0.000000
					CHANNELS 3 Xrotation Yrotation Zrotation
					End Site
					{
						OFFSET 0.000000 -0.010000 0.000000
					}
				}
			}
		}
		JOINT left_upper_arm
		{
			OFFSET -0.024050 0.183110 0.243500
			CHANNELS 3 Xrotation Yrotation Zrotation
			JOINT left_lower_arm
			{
				OFFSET 0.000000 0.274788 0.000000
				CHANNELS 3 Xrotation Yrotation Zrotation
				JOINT left_hand
				{
					OFFSET 0.000000 0.258947 0.000000
					CHANNELS 3 Xrotation Yrotation Zrotation
					End Site
					{
						OFFSET 0.000000 0.010000 0.000000
					}
				}
			}
		}
	}
	JOINT right_thigh
	{
		OFFSET 0.000000 -0.084887 0.000000
		CHANNELS 3 Xrotation Yrotation Zrotation
		JOINT right_shin
		{
			OFFSET 0.000000 0.000000 -0.421546
			CHANNELS 3 Xrotation Yrotation Zrotation
			JOINT right_foot
			{
				OFFSET 0.000000 0.000000 -0.409870
				CHANNELS 3 Xrotation Yrotation Zrotation
				End Site
				{
					OFFSET 0.160000 0.000000 0.000000
				}
			}
		}
	}
	JOINT left_thigh
	{
		OFFSET 0.000000 0.084887 0.000000
		CHANNELS 3 Xrotation Yrotation Zrotation
		JOINT left_shin
		{
			OFFSET 0.000000 0.000000 -0.421546
			CHANNELS 3 Xrotation Yrotation Zrotation
			JOINT left_foot
			{
				OFFSET 0.000000 0.000000 -0.409870
				CHANNELS 3 Xrotation Yrotation Zrotation
				End Site
				{
					OFFSET 0.156322 0.000000 0.000000
				}
			}
		}
	}
}
MOTION
Frames: 14
Frame Time: 0.010000
-0.764092 2.538019 1.647745 38.322822 -0.675902 103.301550 -2.719067 49.577826 -5.253352 18.552628 40.317784 -15.226845 35.385666 -47.982547 82.354057 0.000005 -0.000003 28.271977 0.000001 -0.000000 -0.000000 -68.626251 -4.921643 -26.008218 0.000008 0.000007 -90.527894 0.000001 -0.000000 0.000001 -79.329983 -45.473770 -58.168548 -0.000031 106.992523 0.000071 -0.698923 -13.347804 -3.359831 7.131056 9.684473 -5.478591 -0.000002 28.118709 -0.000002 -11.194003 -3.686546 27.138485 
-0.762354 2.540577 1.648305 38.316466 -0.546742 103.511046 -2.748850 49.522741 -5.259936 18.305686 40.423710 -14.706652 36.399540 -47.765104 82.906571 0.000007 -0.000000 28.761848 0.000001 -0.000000 -0.000000 -68.704791 -4.800168 -25.768011 0.000007 0.000007 -90.661240 0.000000 -0.000000 -0.000002 -79.279180 -45.194867 -58.037859 -0.000032 107.386283 0.000066 -0.682604 -13.888793 -3.410169 7.239603 9.857474 -5.652636 -0.000002 27.996723 -0.000003 -11.354296 -3.668048 27.077834 
-0.760712 2.542995 1.648833 38.310958 -0.416926 103.712673 -2.765391 49.442353 -5.280571 18.019038 40.588935 -14.168224 37.603036 -47.632411 83.635646 0.000007 -0.000001 29.095568 -0.000002 -0.000001 -0.000000 -68.763476 -4.707266 -25.518545 0.000007 0.000007 -90.777811 0.000001 -0.000001 -0.000001 -79.204861 -44.943259 -57.902608 -0.000027 107.767592 0.000067 -0.620919 -14.444908 -3.419552 7.319297 10.001422 -5.817474 -0.000002 27.948793 -0.000001 -11.500971 -3.655011 27.034304 
-0.759183 2.545299 1.649292 38.307495 -0.296220 103.897163 -2.764785 49.335945 -5.312949 17.728564 40.809011 -13.655465 38.807646 -47.552204 84.376742 0.000002 -0.000002 29.349692 -0.000004 -0.000000 -0.000001 -68.795298 -4.636358 -25.272231 0.000008 0.000007 -90.862894 -0.000000 -0.000001 0.000000 -79.116690 -44.723047 -57.760246 -0.000031 108.111048 0.000067 -0.538422 -14.955001 -3.399491 7.388625 10.130478 -5.952241 -0.000002 27.942116 -0.000002 -11.622881 -3.652501 27.009554 
-0.757755 2.547542 1.649636 38.312679 -0.181567 104.081209 -2.741633 49.193748 -5.362005 17.446982 41.097853 -13.165452 39.953174 -47.456342 85.047603 0.000004 -0.000001 29.542259 0.000003 -0.000000 0.000000 -68.804334 -4.557029 -25.005381 0.000007 0.000007 -90.931374 0.000000 -0.000000 0.000001 -79.036784 -44.518777 -57.606417 -0.000027 108.453220 0.000060 -0.425380 -15.412448 -3.345673 7.443980 10.242981 -6.079117 -0.000002 27.998247 -0.000003 -11.729225 -3.671886 26.991343 
-0.756440 2.549769 1.649787 38.339966 -0.080519 104.253030 -2.698019 49.031189 -5.426711 17.177571 41.457988 -12.684817 40.920193 -47.331005 85.568726 0.000003 -0.000000 29.707351 -0.000004 -0.000001 0.000000 -68.778263 -4.475804 -24.735733 0.000006 0.000007 -90.962970 0.000001 0.000000 0.000000 -78.949036 -44.338060 -57.407576 -0.000028 108.799183 0.000063 -0.293933 -15.794256 -3.277097 7.506625 10.364234 -6.183241 -0.000003 28.083096 -0.000002 -11.813143 -3.717646 26.973751 
-0.755250 2.552013 1.649834 38.399272 0.011749 104.419659 -2.638742 48.849216 -5.504821 16.924473 41.895134 -12.202396 41.760125 -47.167845 85.983448 0.000004 -0.000003 29.813113 0.000001 -0.000001 0.000000 -68.705727 -4.389799 -24.456565 0.000008 0.000007 -90.963619 -0.000000 -0.000001 0.000002 -78.872716 -44.165315 -57.171323 -0.000026 109.163109 0.000068 -0.137304 -16.094760 -3.198207 7.567602 10.504645 -6.277530 -0.000002 28.208639 -0.000004 -11.880130 -3.796995 26.954974 
-0.754187 2.554274 1.649791 38.482078 0.087991 104.569342 -2.575249 48.660320 -5.583154 16.709305 42.368811 -11.746021 42.406592 -46.988491 86.271040 0.000006 -0.000002 29.856222 -0.000003 -0.000001 -0.000000 -68.603943 -4.283231 -24.187092 0.000006 0.000007 -90.933239 -0.000000 0.000000 0.000001 -78.811231 -44.009497 -56.909683 -0.000028 109.515287 0.000067 -0.000064 -16.277377 -3.125152 7.638790 10.663941 -6.352946 -0.000002 28.347606 -0.000002 -11.929217 -3.912211 26.935266 
-0.753268 2.556550 1.649668 38.597040 0.155447 104.711123 -2.511491 48.463980 -5.658299 16.514305 42.887468 -11.278279 42.867971 -46.818344 86.472797 0.000008 -0.000001 29.778003 -0.000003 -0.000000 0.000000 -68.488916 -4.130112 -23.910558 0.000007 0.000007 -90.881336 0.000000 0.000000 -0.000000 -78.761357 -43.856416 -56.629740 -0.000025 109.869077 0.000060 0.134481 -16.370676 -3.060765 7.709080 10.849438 -6.428851 -0.000002 28.510951 -0.000005 -11.965332 -4.065632 26.916155 
-0.752502 2.558815 1.649462 38.737626 0.213058 104.834859 -2.449666 48.279660 -5.728152 16.323691 43.410387 -10.791450 43.114572 -46.685484 86.610733 0.000002 -0.000002 29.579008 -0.000004 -0.000002 0.000001 -68.396620 -3.959547 -23.653874 0.000007 0.000007 -90.801573 -0.000000 0.000001 0.000001 -78.730252 -43.711404 -56.363312 -0.000028 110.207937 0.000066 0.253719 -16.367379 -2.992295 7.773625 11.062743 -6.497204 -0.000001 28.668787 -0.000002 -11.988366 -4.238508 26.896151 
-0.751872 2.561021 1.649199 38.905475 0.267969 104.948438 -2.381362 48.097434 -5.799581 16.134818 43.938720 -10.294722 43.205820 -46.599065 86.753784 0.000003 -0.000003 29.209304 -0.000001 0.000001 -0.000000 -68.351868 -3.794928 -23.404222 0.000007 0.000007 -90.701360 0.000000 -0.000001 -0.000001 -78.707057 -43.565313 -56.127636 -0.000027 110.504606 0.000052 0.359963 -16.286762 -2.918245 7.823804 11.295747 -6.585984 -0.000002 28.840846 -0.000003 -12.006504 -4.435303 26.879074 
-0.751348 2.563105 1.648880 39.083367 0.318145 105.046288 -2.311113 47.929415 -5.865301 15.950642 44.436418 -9.801152 43.236248 -46.569889 86.960295 0.000008 -0.000003 28.685142 -0.000000 -0.000000 -0.000000 -68.345414 -3.659224 -23.188730 0.000007 0.000007 -90.587467 0.000001 0.000000 -0.000001 -78.691388 -43.435437 -55.940335 -0.000025 110.755151 0.000053 0.442692 -16.134934 -2.823099 7.868096 11.528895 -6.693843 -0.000002 29.002127 -0.000002 -12.011239 -4.639508 26.869064 
-0.750892 2.565024 1.648523 39.279650 0.371284 105.134896 -2.237343 47.776145 -5.925348 15.765038 44.921645 -9.289852 43.374928 -46.573650 87.332786 0.000005 -0.000000 28.020848 -0.000001 -0.000002 0.000001 -68.330749 -3.570455 -23.025150 0.000007 0.000007 -90.436472 -0.000000 -0.000000 0.000000 -78.656322 -43.318094 -55.769861 -0.000022 110.965398 0.000062 0.532750 -15.959270 -2.707076 7.903873 11.764130 -6.830365 -0.000003 29.163671 -0.000002 -12.003201 -4.845671 26.867551 
-0.750468 2.566763 1.648137 39.476608 0.425166 105.208115 -2.170026 47.637677 -5.973312 15.598262 45.373623 -8.802844 43.679060 -46.566720 87.860152 0.000002 -0.000002 27.266755 -0.000003 -0.000002 0.000002 -68.279748 -3.533332 -22.928032 0.000006 0.000007 -90.246163 -0.000000 0.000000 -0.000003 -78.612090 -43.231074 -55.607432 -0.000024 111.145578 0.000060 0.611466 -15.760523 -2.572501 7.928463 11.982970 -6.990261 -0.000002 29.316207 -0.000004 -11.988264 -5.037427 26.873103 
